<?xml version="1.0" encoding="utf-8"?>
<!-- Generator: Adobe Illustrator 17.0.1, SVG Export Plug-In . SVG Version: 6.00 Build 0)  -->
<!DOCTYPE svg PUBLIC "-//W3C//DTD SVG 1.1//EN" "http://www.w3.org/Graphics/SVG/1.1/DTD/svg11.dtd">
<svg version="1.1" id="Camada_2" xmlns="http://www.w3.org/2000/svg" xmlns:xlink="http://www.w3.org/1999/xlink" x="0px" y="0px"
	 width="453.144px" height="190.539px" viewBox="71.068 115.2 453.144 190.539"
	 enable-background="new 71.068 115.2 453.144 190.539" xml:space="preserve">
<g>
	<polygon fill="#4A555C" points="95.388,194.088 95.388,249.53 71.269,249.53 71.269,115.604 158.212,115.604 158.212,136.85 
		95.388,136.85 95.388,172.841 152.812,172.841 152.812,194.088 	"/>
	<path fill="#4A555C" d="M524.412,214.974c0,23.758-16.393,36.181-41.061,36.181c-24.478,0-40.85-13.499-40.85-37.082v-23.582
		c0-23.58,16.372-37.269,40.85-37.269c24.668,0,41.061,12.599,41.061,36.369v1.62H503.35c0-13.504-7.394-19.08-20-19.08
		c-12.409,0-19.61,6.467-19.61,20.161v19.795c0,13.694,7.201,20.166,19.61,20.166c12.606,0,20-5.395,20-18.904h21.062V214.974z"/>
	<path fill="#4A555C" d="M231.361,249.531v-10.976l-9.898,5.398c-8.821,4.678-15.661,6.849-25.034,6.849
		c-16.909,0-28.255-10.983-28.255-27.006c0-19.8,15.481-28.99,35.114-28.99h28.263v-5.571c0-12.252-7.03-18.187-19.455-18.187
		c-12.958,0-20.52,5.403-20.52,16.552h-21.242v-1.243c0-21.43,16.93-33.489,41.588-33.489c25.925,0,40.869,12.951,40.869,35.632
		v61.03L231.361,249.531L231.361,249.531z M231.361,210.288h-25.195c-13.148,0-16.21,6.125-16.21,12.425
		c0,6.659,4.139,10.622,11.347,10.622c5.935,0,10.979-1.801,16.388-4.683l13.67-7.377V210.288z"/>
	<path fill="#4A555C" d="M315.489,249.53c-21.967,0-36.184-10.974-36.184-32.579v-43.743h-14.409v-18.543h14.409V128.92h22.318
		v25.744h26.279v18.543h-26.279v42.482c0,11.169,5.044,14.946,15.647,14.946h11.173v18.895H315.489z"/>
	<path fill="#4A555C" d="M423.536,219.652c0,19.261-16.564,31.503-41.589,31.503c-24.478,0-41.931-13.324-41.931-36.538v-22.506
		c0-23.948,17.453-38.89,41.931-38.89c24.67,0,41.762,14.231,41.762,39.255v16.733h-62.997v4.683
		c0,13.504,8.997,19.444,21.411,19.444c12.259,0,20.532-4.322,20.532-14.585h20.881L423.536,219.652L423.536,219.652z
		 M403.19,192.112c0-13.511-7.916-20.886-21.066-20.886c-13.309,0-21.411,7.375-21.411,21.066v2.331h42.477L403.19,192.112
		L403.19,192.112z"/>
</g>
<g>
	<path fill="#941611" d="M174.141,291.555v14.085h-6.128v-34.023h22.088v5.396h-15.96v9.146h14.588v5.396L174.141,291.555
		L174.141,291.555z"/>
	<path fill="#941611" d="M193.987,305.64v-24.1h5.534v3.43l1.052-1.052c1.799-1.708,3.78-2.562,5.945-2.562h1.418v5.625h-1.372
		c-1.951,0-3.643,0.549-5.076,1.646l-1.875,1.555v15.457h-5.626V305.64z"/>
	<path fill="#941611" d="M226.639,305.64v-2.79l-2.516,1.372c-2.195,1.159-4.313,1.738-6.356,1.738c-2.134,0-3.864-0.633-5.19-1.898
		s-1.989-2.919-1.989-4.961c0-2.409,0.831-4.238,2.493-5.488c1.661-1.25,3.803-1.875,6.425-1.875h7.18v-1.417
		c0-3.08-1.646-4.619-4.939-4.619c-3.476,0-5.213,1.402-5.213,4.207h-5.396v-0.32c0-2.683,0.96-4.771,2.881-6.265
		c1.921-1.494,4.482-2.241,7.683-2.241c3.292,0,5.846,0.793,7.66,2.378c1.814,1.586,2.721,3.812,2.721,6.677v15.503L226.639,305.64
		L226.639,305.64z M226.639,295.67h-6.402c-2.744,0-4.116,1.053-4.116,3.156c0,0.854,0.251,1.517,0.754,1.989
		s1.212,0.708,2.126,0.708c1.28,0,2.667-0.396,4.162-1.188l3.476-1.875L226.639,295.67L226.639,295.67z"/>
	<path fill="#941611" d="M252.979,305.64v-15.823c0-1.006-0.274-1.852-0.823-2.537c-0.549-0.687-1.342-1.029-2.378-1.029
		c-0.915,0-1.967,0.351-3.156,1.052l-3.521,2.104v16.234h-5.534v-24.1h5.488v2.835l2.561-1.555c1.585-0.976,3.369-1.494,5.351-1.555
		c2.347,0,4.199,0.716,5.556,2.149c1.356,1.433,2.035,3.322,2.035,5.67v16.555L252.979,305.64L252.979,305.64z"/>
	<path fill="#941611" d="M284.486,296.859c0,2.957-0.938,5.229-2.813,6.813c-1.875,1.586-4.413,2.378-7.614,2.378
		c-3.17,0-5.693-0.83-7.568-2.492c-1.875-1.661-2.813-3.971-2.813-6.928v-5.991c0-2.957,0.945-5.273,2.835-6.95
		c1.89-1.678,4.405-2.516,7.545-2.516c3.201,0,5.739,0.8,7.614,2.4s2.813,3.88,2.813,6.837v0.412h-5.351
		c0-3.231-1.692-4.848-5.076-4.848c-3.323,0-4.984,1.707-4.984,5.122v5.03c0,3.414,1.661,5.122,4.984,5.122
		c3.384,0,5.076-1.601,5.076-4.802h5.351L284.486,296.859L284.486,296.859z"/>
	<path fill="#941611" d="M310.826,296.311c0,2.988-1.006,5.373-3.018,7.157c-2.013,1.783-4.634,2.675-7.866,2.675
		c-3.231,0-5.854-0.892-7.866-2.675c-2.012-1.784-3.018-4.169-3.018-7.157v-5.259c0-3.019,1.006-5.419,3.018-7.203
		c2.012-1.783,4.634-2.675,7.866-2.675s5.854,0.892,7.866,2.675c2.012,1.784,3.018,4.185,3.018,7.203V296.311z M305.521,291.601
		c0-1.769-0.51-3.148-1.531-4.139s-2.371-1.486-4.048-1.486s-3.026,0.495-4.047,1.486c-1.021,0.99-1.532,2.37-1.532,4.139v4.161
		c0,1.769,0.511,3.147,1.532,4.139c1.021,0.991,2.37,1.486,4.047,1.486s3.026-0.495,4.048-1.486s1.531-2.37,1.531-4.139V291.601z"/>
	<path fill="#941611" d="M345.123,305.64v-2.606l-2.789,1.509c-1.677,0.945-3.476,1.418-5.396,1.418c-2.47,0-4.466-0.755-5.99-2.264
		c-1.524-1.51-2.287-3.499-2.287-5.968v-8.095c0-2.438,0.777-4.436,2.333-5.99c1.555-1.555,3.566-2.333,6.036-2.333
		c1.859,0,3.628,0.473,5.305,1.418l2.744,1.509v-12.621h5.441v34.023L345.123,305.64L345.123,305.64z M345.078,289.313l-3.842-2.149
		c-1.128-0.609-2.256-0.914-3.384-0.914c-1.159,0-2.081,0.358-2.767,1.074c-0.687,0.717-1.029,1.67-1.029,2.858v6.859
		c0,1.22,0.343,2.188,1.029,2.904c0.686,0.717,1.607,1.074,2.767,1.074c1.066,0,2.195-0.319,3.384-0.96l3.842-2.104V289.313z"/>
	<path fill="#941611" d="M371.418,305.64v-2.79l-2.516,1.372c-2.195,1.159-4.313,1.738-6.356,1.738c-2.134,0-3.864-0.633-5.19-1.898
		s-1.989-2.919-1.989-4.961c0-2.409,0.831-4.238,2.492-5.488s3.804-1.875,6.425-1.875h7.18v-1.417c0-3.08-1.646-4.619-4.938-4.619
		c-3.476,0-5.213,1.402-5.213,4.207h-5.396v-0.32c0-2.683,0.96-4.771,2.881-6.265s4.481-2.241,7.683-2.241
		c3.293,0,5.846,0.793,7.66,2.378c1.813,1.586,2.721,3.812,2.721,6.677v15.503L371.418,305.64L371.418,305.64z M371.418,295.67
		h-6.402c-2.744,0-4.116,1.053-4.116,3.156c0,0.854,0.252,1.517,0.755,1.989s1.212,0.708,2.126,0.708
		c1.28,0,2.668-0.396,4.162-1.188l3.476-1.875v-2.79L371.418,295.67L371.418,295.67z"/>
	<path fill="#941611" d="M414.906,305.64l-6.128-12.805h-6.951v12.805h-6.082v-34.023h14.999c3.079,0,5.625,0.93,7.638,2.789
		c2.012,1.86,3.018,4.451,3.018,7.774c0,2.408-0.609,4.443-1.829,6.105c-1.22,1.661-2.82,2.873-4.802,3.636l6.951,13.719
		L414.906,305.64L414.906,305.64z M410.013,287.668c1.616,0,2.911-0.504,3.887-1.51s1.464-2.348,1.464-4.024
		s-0.457-2.972-1.372-3.887c-0.914-0.915-2.18-1.372-3.796-1.372h-8.368v10.793H410.013z"/>
	<path fill="#941611" d="M446.78,296.311c0,2.988-1.006,5.373-3.019,7.157c-2.012,1.783-4.634,2.675-7.865,2.675
		s-5.854-0.892-7.866-2.675c-2.012-1.784-3.018-4.169-3.018-7.157v-5.259c0-3.019,1.006-5.419,3.018-7.203
		c2.013-1.783,4.635-2.675,7.866-2.675s5.854,0.892,7.865,2.675c2.013,1.784,3.019,4.185,3.019,7.203V296.311z M441.476,291.601
		c0-1.769-0.511-3.148-1.532-4.139c-1.021-0.991-2.37-1.486-4.047-1.486s-3.026,0.495-4.047,1.486
		c-1.021,0.99-1.532,2.37-1.532,4.139v4.161c0,1.769,0.511,3.147,1.532,4.139c1.021,0.991,2.37,1.486,4.047,1.486
		s3.025-0.495,4.047-1.486s1.532-2.37,1.532-4.139V291.601z"/>
	<path fill="#941611" d="M472.343,296.859c0,2.957-0.938,5.229-2.813,6.813c-1.875,1.586-4.413,2.378-7.614,2.378
		c-3.171,0-5.693-0.83-7.568-2.492c-1.875-1.661-2.813-3.971-2.813-6.928v-5.991c0-2.957,0.945-5.273,2.835-6.95
		c1.891-1.678,4.405-2.516,7.546-2.516c3.201,0,5.739,0.8,7.614,2.4s2.813,3.88,2.813,6.837v0.412h-5.351
		c0-3.231-1.692-4.848-5.076-4.848c-3.323,0-4.984,1.707-4.984,5.122v5.03c0,3.414,1.661,5.122,4.984,5.122
		c3.384,0,5.076-1.601,5.076-4.802h5.351V296.859z"/>
	<path fill="#941611" d="M492.829,305.64v-15.868c0-1.067-0.282-1.921-0.846-2.562c-0.564-0.64-1.35-0.96-2.355-0.96
		c-0.915,0-1.967,0.351-3.155,1.052l-3.521,2.104v16.234h-5.533v-34.023h5.533v12.759l2.516-1.555
		c1.707-1.037,3.49-1.555,5.351-1.555c2.347,0,4.199,0.716,5.556,2.149c1.356,1.433,2.035,3.322,2.035,5.67v16.555H492.829z"/>
	<path fill="#941611" d="M519.169,305.64v-2.79l-2.516,1.372c-2.195,1.159-4.313,1.738-6.356,1.738c-2.134,0-3.864-0.633-5.19-1.898
		s-1.989-2.919-1.989-4.961c0-2.409,0.831-4.238,2.492-5.488c1.662-1.25,3.804-1.875,6.426-1.875h7.18v-1.417
		c0-3.08-1.646-4.619-4.939-4.619c-3.476,0-5.213,1.402-5.213,4.207h-5.396v-0.32c0-2.683,0.961-4.771,2.881-6.265
		c1.921-1.494,4.481-2.241,7.683-2.241c3.293,0,5.847,0.793,7.66,2.378c1.814,1.586,2.721,3.812,2.721,6.677v15.503L519.169,305.64
		L519.169,305.64z M519.169,295.67h-6.402c-2.744,0-4.116,1.053-4.116,3.156c0,0.854,0.252,1.517,0.755,1.989
		s1.212,0.708,2.126,0.708c1.281,0,2.668-0.396,4.162-1.188l3.476-1.875v-2.79L519.169,295.67L519.169,295.67z"/>
</g>
</svg>
